<svg width="32" height="32" viewBox="0 0 32 32" fill="none" xmlns="http://www.w3.org/2000/svg">
<g id="SecAI_logo">
<path id="Vector" d="M27.088 20.336C27.0464 20.336 27.008 20.336 26.9664 20.336L16.5216 4.16L1.28003 27.7824H22.9856L16.3232 17.5072L14.0384 21.0432L15.9168 23.9424H8.32643L9.35683 22.3456L12.112 18.0736H12.1152L14.3968 14.5408L14.5664 14.2784L16.5216 11.2416L23.744 22.432C23.504 22.9216 23.3696 23.4752 23.3696 24.0576C23.3696 26.1056 25.04 27.776 27.088 27.776C29.136 27.776 30.8096 26.1056 30.8096 24.0576C30.8096 22.0096 29.1392 20.336 27.088 20.336ZM27.088 25.216C26.4512 25.216 25.9296 24.6944 25.9296 24.0576C25.9296 23.4208 26.4512 22.896 27.088 22.896C27.7248 22.896 28.2496 23.4176 28.2496 24.0576C28.2496 24.6976 27.728 25.216 27.088 25.216Z" fill="#EB2D17"/>
</g>
</svg>
