<?xml version="1.0" encoding="UTF-8"?>
<svg id="_图层_1" data-name="图层_1" xmlns="http://www.w3.org/2000/svg" version="1.1" viewBox="0 0 209 42">
  <!-- Generator: Adobe Illustrator 29.1.0, SVG Export Plug-In . SVG Version: 2.1.0 Build 142)  -->
  <defs>
    <style>
      .st0 {
        fill: #fff;
      }
    </style>
  </defs>
  <path class="st0" d="M30.5,25.9h-.1L18.6,7.7,1.4,34.3h24.4l-7.5-11.6-2.6,4,2.1,3.3h-8.5l1.2-1.8,3.1-4.8h0l2.6-4,.2-.3,2.2-3.4,8.1,12.6c-.3.6-.4,1.2-.4,1.8,0,2.3,1.9,4.2,4.2,4.2s4.2-1.9,4.2-4.2-1.9-4.2-4.2-4.2ZM30.5,31.4c-.7,0-1.3-.6-1.3-1.3s.6-1.3,1.3-1.3,1.3.6,1.3,1.3-.6,1.3-1.3,1.3Z"/>
  <path class="st0" d="M46.2,30V9.6h4.4v20.4h-4.4ZM54.5,30v-15h3.9l.2,2.7h.2c.4-1,1-1.8,1.9-2.2.9-.5,1.8-.8,2.9-.8s1.4.1,2.1.4c.7.2,1.2.6,1.7,1.1.5.5.9,1.1,1.1,1.9.3.8.4,1.7.4,2.9v9.1h-4.1v-8.2c0-.8-.1-1.5-.3-2.1-.2-.6-.5-1-.9-1.2-.4-.3-1-.4-1.6-.4s-1.3.2-1.8.5c-.5.3-.9.8-1.1,1.3-.3.5-.4,1.1-.4,1.8v8.3h-4.1ZM75.1,30l-5.1-15h4.4l2.3,8,.9,3.6h.1l.9-3.6,2.3-8.1h4.5l-5.1,15h-5.1ZM93.1,30.3c-1.6,0-2.9-.3-4-1-1.1-.6-2-1.5-2.5-2.7-.6-1.2-.9-2.5-.9-4s.3-3,.9-4.2c.6-1.2,1.4-2.1,2.5-2.7,1.1-.7,2.4-1,3.9-1s3.2.4,4.3,1.1,1.9,1.8,2.4,3.1c.5,1.3.6,2.8.5,4.5h-10.4c0,.8.1,1.5.4,2,.3.6.7,1,1.2,1.3.5.3,1.1.4,1.8.4s1.4-.2,2-.5c.6-.4.9-.8,1.1-1.4h3.9c-.1,1-.5,1.9-1.1,2.6-.6.7-1.4,1.3-2.4,1.8-1,.4-2.1.6-3.4.6ZM89.7,21.2l-.4-.4h7.1l-.4.4c0-.8,0-1.4-.4-1.9-.3-.5-.6-.9-1.1-1.1-.5-.3-1-.4-1.7-.4s-1.3.1-1.7.4c-.5.3-.9.7-1.1,1.2-.3.5-.4,1.1-.4,1.8ZM108.8,30.3c-2.2,0-3.9-.5-5.1-1.4-1.2-.9-1.8-2.1-1.7-3.6h4c0,.8.3,1.4.8,1.7.5.3,1.2.5,2,.5s1.5-.1,1.9-.4c.4-.3.6-.7.6-1.2s-.1-.8-.3-1c-.2-.2-.6-.4-1-.5-.4-.1-1-.2-1.7-.3-.8-.1-1.6-.3-2.4-.4-.7-.2-1.3-.4-1.9-.8-.5-.3-1-.8-1.3-1.3-.3-.5-.4-1.2-.4-2s.3-1.9.8-2.6c.6-.7,1.3-1.2,2.3-1.6,1-.4,2.1-.5,3.4-.5s2.4.2,3.3.6c1,.4,1.7.9,2.2,1.6.5.7.8,1.5.8,2.5h-4c0-.4-.1-.8-.3-1.1-.2-.3-.5-.5-.9-.7-.4-.1-.8-.2-1.3-.2-.8,0-1.3.1-1.7.4-.4.3-.6.7-.6,1.1s.1.7.3.9c.2.2.6.4,1,.5.5.1,1.1.2,1.8.3.8,0,1.5.2,2.2.4.7.2,1.4.4,1.9.8.6.3,1,.8,1.3,1.3.3.6.5,1.3.5,2.2,0,1.7-.6,2.9-1.8,3.6-1.2.8-2.9,1.1-5,1.1ZM123.4,30c-1,0-1.8-.1-2.4-.4-.6-.3-1-.7-1.2-1.3-.2-.6-.3-1.2-.3-2v-8h-2.7v-3.3h2.7v-4.1l4.1-.4v4.5h3v3.3h-3v7.3c0,.4.1.7.3.9.2.1.5.2.9.2h1.8v3.3h-3.3ZM129.2,30v-15h4.1v15h-4.1ZM129.2,13.1v-3.5h4.1v3.5h-4.1ZM143.1,35c-1.3,0-2.5-.2-3.4-.6-1-.4-1.7-.9-2.2-1.6-.5-.7-.8-1.5-.9-2.4h3.9c0,.3.2.6.4.8.2.3.6.5.9.6.4.1.8.2,1.3.2.8,0,1.4-.1,1.9-.4.5-.2.9-.6,1.1-1,.2-.4.4-1,.4-1.7v-2.6h-.2c-.3.8-.9,1.5-1.7,2-.8.5-1.7.8-2.8.8s-1.7-.1-2.4-.4c-.7-.3-1.3-.8-1.8-1.4-.5-.6-.9-1.4-1.2-2.3s-.4-1.9-.4-3.1.2-2.9.7-4c.5-1.1,1.2-1.9,2.1-2.4.9-.5,1.9-.8,3.1-.8s2,.3,2.8.8c.8.5,1.4,1.1,1.7,1.9h.2v-2.4h4.1v13.2c0,1.3-.2,2.3-.6,3.2-.4.9-.9,1.5-1.5,2.1-.7.5-1.5.9-2.4,1.1-.9.2-1.9.4-3.1.4ZM143.4,25.9c.7,0,1.3-.1,1.8-.4s.8-.7,1.1-1.2c.2-.5.4-1,.4-1.5v-1.8c0-.5-.2-1-.4-1.5-.2-.5-.6-.9-1.1-1.2s-1-.4-1.7-.4-1.2.1-1.7.4c-.5.3-.9.7-1.1,1.3-.3.6-.4,1.4-.4,2.3s.1,1.7.4,2.3c.3.6.7,1,1.1,1.3.5.3,1,.4,1.7.4ZM159,30.3c-.9,0-1.7-.2-2.5-.5-.7-.3-1.4-.8-1.9-1.5-.5-.7-.9-1.5-1.2-2.4-.3-1-.4-2.1-.4-3.4s.2-3.2.7-4.3c.5-1.2,1.2-2,2.1-2.6.9-.6,2-.9,3.2-.9s1.5.1,2.1.4c.6.2,1.2.6,1.6,1,.5.4.8.9,1,1.5h.2l.2-2.6h3.9v15h-4.1v-2.6h-.2c-.3.9-.9,1.6-1.8,2.1-.8.5-1.8.8-3,.8ZM160.6,26.9c.8,0,1.4-.2,1.9-.5.5-.4.9-.8,1.1-1.4.2-.6.4-1.2.4-1.8v-1.4c0-.7-.1-1.3-.4-1.8-.2-.6-.6-1-1.1-1.4-.5-.4-1.1-.5-1.9-.5s-1.3.2-1.8.5c-.5.3-.9.8-1.2,1.5s-.4,1.5-.4,2.5.1,1.8.4,2.5c.3.7.7,1.1,1.2,1.5.5.3,1.1.5,1.8.5ZM176.6,30c-1,0-1.8-.1-2.4-.4s-1-.7-1.2-1.3c-.2-.6-.3-1.2-.3-2v-8h-2.7v-3.3h2.7v-4.1l4.1-.4v4.5h3v3.3h-3v7.3c0,.4.1.7.3.9.2.1.5.2.9.2h1.8v3.3h-3.3ZM188.7,30.3c-1.1,0-2.2-.2-3.1-.5-.9-.4-1.7-.9-2.4-1.5-.7-.7-1.2-1.5-1.5-2.4-.4-1-.5-2.1-.5-3.3s.3-2.9.9-4.1c.6-1.2,1.5-2.1,2.6-2.7,1.1-.7,2.5-1,4.1-1s2.1.2,3.1.5c.9.4,1.7.9,2.4,1.5.7.7,1.2,1.5,1.5,2.4.4,1,.6,2,.6,3.3s-.3,2.9-.9,4.1c-.6,1.2-1.5,2.1-2.6,2.7-1.1.7-2.4,1-4,1ZM188.6,26.9c.7,0,1.3-.2,1.8-.5.5-.3.9-.8,1.2-1.5.3-.7.4-1.5.4-2.5s0-1.4-.2-1.9c-.1-.6-.4-1-.7-1.4-.3-.4-.7-.6-1.1-.8-.4-.2-.9-.3-1.4-.3s-1.3.2-1.8.5c-.5.3-.9.8-1.2,1.5-.3.7-.4,1.5-.4,2.5s0,1.4.2,2c.2.5.4,1,.7,1.4.3.4.7.6,1.1.8.4.2.9.3,1.4.3ZM198.8,30v-15h3.7l.2,2.4h.1c.3-1,.9-1.6,1.6-2,.7-.4,1.6-.6,2.5-.6h.8v3.9h-.9c-.9,0-1.7.1-2.2.4-.6.3-1,.7-1.3,1.2-.3.5-.4,1.2-.4,1.9v7.8h-4.1Z"/>
</svg>