<svg width="209" height="42" viewBox="0 0 209 42" fill="none" xmlns="http://www.w3.org/2000/svg">
<path d="M30.4739 25.878C30.4271 25.878 30.3839 25.878 30.3371 25.878L18.5867 7.67999L1.43994 34.2552H25.8587L18.3635 22.6956L15.7931 26.6736L17.9063 29.9352H9.36714L10.5263 28.1388L13.6259 23.3328H13.6295L16.1963 19.3584L16.3871 19.0632L18.5867 15.6468L26.7119 28.236C26.4419 28.7868 26.2907 29.4096 26.2907 30.0648C26.2907 32.3688 28.1699 34.248 30.4739 34.248C32.7779 34.248 34.6607 32.3688 34.6607 30.0648C34.6607 27.7608 32.7815 25.878 30.4739 25.878ZM30.4739 31.368C29.7575 31.368 29.1707 30.7812 29.1707 30.0648C29.1707 29.3484 29.7575 28.758 30.4739 28.758C31.1903 28.758 31.7807 29.3448 31.7807 30.0648C31.7807 30.7848 31.1939 31.368 30.4739 31.368Z" fill="#CC0000"/>
<path d="M46.212 30V9.588H50.58V30H46.212ZM54.5413 30V14.992H58.4893L58.6573 17.708H58.8253C59.236 16.7 59.8707 15.9533 60.7293 15.468C61.588 14.964 62.5493 14.712 63.6133 14.712C64.36 14.712 65.0507 14.8333 65.6853 15.076C66.3387 15.3 66.8987 15.6547 67.3653 16.14C67.8507 16.6253 68.224 17.2693 68.4853 18.072C68.7653 18.856 68.9053 19.808 68.9053 20.928V30H64.7893V21.824C64.7893 20.984 64.6867 20.284 64.4813 19.724C64.2947 19.164 63.996 18.7533 63.5853 18.492C63.1747 18.212 62.6333 18.072 61.9613 18.072C61.252 18.072 60.6547 18.24 60.1693 18.576C59.684 18.912 59.3107 19.3507 59.0493 19.892C58.788 20.4333 58.6573 21.0213 58.6573 21.656V30H54.5413ZM75.0726 30L69.9486 14.964H74.3726L76.6406 23L77.5366 26.584H77.6766L78.5726 23.028L80.8406 14.964H85.2926L80.1966 30H75.0726ZM93.1135 30.252C91.5455 30.252 90.2015 29.9347 89.0815 29.3C87.9802 28.6653 87.1309 27.7787 86.5335 26.64C85.9362 25.4827 85.6375 24.1387 85.6375 22.608C85.6375 20.984 85.9362 19.584 86.5335 18.408C87.1309 17.232 87.9802 16.3267 89.0815 15.692C90.1829 15.0387 91.4802 14.712 92.9735 14.712C94.7095 14.712 96.1375 15.0947 97.2575 15.86C98.3775 16.6253 99.1802 17.6613 99.6655 18.968C100.151 20.2747 100.31 21.7587 100.142 23.42H89.6975C89.6789 24.204 89.8095 24.876 90.0895 25.436C90.3882 25.996 90.7989 26.4253 91.3215 26.724C91.8442 27.004 92.4415 27.144 93.1135 27.144C93.8975 27.144 94.5602 26.976 95.1015 26.64C95.6615 26.2853 96.0162 25.8187 96.1655 25.24H100.058C99.9269 26.248 99.5442 27.1253 98.9095 27.872C98.2935 28.6187 97.4909 29.2067 96.5015 29.636C95.5122 30.0467 94.3829 30.252 93.1135 30.252ZM89.6975 21.236L89.3335 20.788H96.4735L96.1095 21.236C96.1469 20.452 96.0255 19.8173 95.7455 19.332C95.4842 18.828 95.1109 18.4547 94.6255 18.212C94.1402 17.9507 93.5895 17.82 92.9735 17.82C92.3015 17.82 91.7229 17.96 91.2375 18.24C90.7522 18.52 90.3695 18.9213 90.0895 19.444C89.8282 19.948 89.6975 20.5453 89.6975 21.236ZM108.85 30.28C106.666 30.28 104.977 29.8227 103.782 28.908C102.606 27.9747 102.028 26.7613 102.046 25.268H106.078C106.097 26.0707 106.377 26.6493 106.918 27.004C107.46 27.34 108.141 27.508 108.962 27.508C109.802 27.508 110.437 27.3587 110.866 27.06C111.296 26.7613 111.51 26.3693 111.51 25.884C111.51 25.436 111.398 25.1 111.174 24.876C110.95 24.6333 110.614 24.456 110.166 24.344C109.718 24.2133 109.14 24.1013 108.43 24.008C107.59 23.896 106.806 23.756 106.078 23.588C105.369 23.4013 104.734 23.1493 104.174 22.832C103.633 22.496 103.204 22.0573 102.886 21.516C102.588 20.9747 102.438 20.2933 102.438 19.472C102.438 18.408 102.709 17.5307 103.25 16.84C103.81 16.1307 104.576 15.5987 105.546 15.244C106.536 14.8893 107.684 14.712 108.99 14.712C110.278 14.712 111.389 14.8987 112.322 15.272C113.274 15.6453 114.012 16.1867 114.534 16.896C115.057 17.5867 115.328 18.436 115.346 19.444H111.314C111.314 19.0147 111.212 18.66 111.006 18.38C110.801 18.0813 110.512 17.8573 110.138 17.708C109.784 17.5587 109.364 17.484 108.878 17.484C108.113 17.484 107.534 17.6333 107.142 17.932C106.75 18.212 106.554 18.5853 106.554 19.052C106.554 19.4253 106.666 19.724 106.89 19.948C107.114 20.172 107.46 20.3493 107.926 20.48C108.393 20.592 108.99 20.6947 109.718 20.788C110.484 20.8813 111.221 21.012 111.93 21.18C112.658 21.348 113.302 21.6 113.862 21.936C114.422 22.2533 114.861 22.7013 115.178 23.28C115.496 23.84 115.654 24.5773 115.654 25.492C115.654 27.1533 115.048 28.3667 113.834 29.132C112.64 29.8973 110.978 30.28 108.85 30.28ZM123.372 30C122.364 30 121.58 29.8507 121.02 29.552C120.46 29.2533 120.068 28.8333 119.844 28.292C119.639 27.732 119.536 27.0787 119.536 26.332V18.296H116.848V14.992H119.536V10.904L123.624 10.512V14.992H126.648V18.296H123.624V25.548C123.624 25.996 123.727 26.2947 123.932 26.444C124.138 26.5933 124.436 26.668 124.828 26.668H126.648V30H123.372ZM129.19 30V14.992H133.306V30H129.19ZM129.19 13.06V9.588H133.306V13.06H129.19ZM143.146 34.956C141.821 34.956 140.682 34.76 139.73 34.368C138.778 33.9947 138.031 33.4627 137.49 32.772C136.949 32.1 136.641 31.3067 136.566 30.392H140.514C140.589 30.7093 140.738 30.9893 140.962 31.232C141.205 31.4933 141.513 31.6893 141.886 31.82C142.278 31.9693 142.726 32.044 143.23 32.044C144.033 32.044 144.677 31.9227 145.162 31.68C145.666 31.456 146.03 31.12 146.254 30.672C146.497 30.224 146.618 29.6547 146.618 28.964V26.388H146.394C146.077 27.1907 145.507 27.844 144.686 28.348C143.883 28.852 142.941 29.104 141.858 29.104C140.962 29.104 140.15 28.9547 139.422 28.656C138.713 28.3387 138.097 27.8813 137.574 27.284C137.051 26.668 136.65 25.912 136.37 25.016C136.09 24.12 135.95 23.084 135.95 21.908C135.95 20.3213 136.193 18.996 136.678 17.932C137.182 16.868 137.873 16.0653 138.75 15.524C139.646 14.9827 140.691 14.712 141.886 14.712C142.969 14.712 143.911 14.964 144.714 15.468C145.517 15.9533 146.077 16.5973 146.394 17.4H146.618L146.73 14.992H150.734V28.208C150.734 29.4587 150.547 30.5133 150.174 31.372C149.819 32.2307 149.306 32.9213 148.634 33.444C147.962 33.9853 147.159 34.368 146.226 34.592C145.311 34.8347 144.285 34.956 143.146 34.956ZM143.37 25.94C144.079 25.94 144.667 25.7907 145.134 25.492C145.601 25.1933 145.955 24.8013 146.198 24.316C146.441 23.812 146.581 23.2987 146.618 22.776L146.59 20.984C146.571 20.4613 146.441 19.9667 146.198 19.5C145.955 19.0147 145.601 18.6227 145.134 18.324C144.667 18.0253 144.089 17.876 143.398 17.876C142.745 17.876 142.166 18.0253 141.662 18.324C141.177 18.604 140.803 19.0427 140.542 19.64C140.281 20.2373 140.15 20.9933 140.15 21.908C140.15 22.8227 140.281 23.5787 140.542 24.176C140.822 24.7733 141.205 25.2213 141.69 25.52C142.175 25.8 142.735 25.94 143.37 25.94ZM159.005 30.252C158.109 30.252 157.287 30.0933 156.541 29.776C155.813 29.4587 155.178 28.9733 154.637 28.32C154.114 27.6667 153.713 26.8547 153.433 25.884C153.153 24.9133 153.013 23.784 153.013 22.496C153.013 20.76 153.255 19.3227 153.741 18.184C154.245 17.0267 154.945 16.1587 155.841 15.58C156.755 15.0013 157.81 14.712 159.005 14.712C159.789 14.712 160.489 14.8333 161.105 15.076C161.739 15.3187 162.281 15.6547 162.729 16.084C163.195 16.5133 163.541 17.0173 163.765 17.596H163.989L164.157 14.992H168.105V30H163.989V27.368H163.765C163.429 28.2453 162.841 28.9453 162.001 29.468C161.161 29.9907 160.162 30.252 159.005 30.252ZM160.573 26.92C161.338 26.92 161.963 26.7427 162.449 26.388C162.953 26.0333 163.326 25.576 163.569 25.016C163.811 24.4373 163.933 23.8307 163.933 23.196V21.768C163.933 21.1147 163.811 20.508 163.569 19.948C163.326 19.388 162.953 18.9307 162.449 18.576C161.963 18.2213 161.338 18.044 160.573 18.044C159.901 18.044 159.313 18.2027 158.809 18.52C158.305 18.8373 157.913 19.3227 157.633 19.976C157.353 20.6293 157.213 21.4693 157.213 22.496C157.213 23.4853 157.353 24.316 157.633 24.988C157.913 25.6413 158.305 26.1267 158.809 26.444C159.313 26.7613 159.901 26.92 160.573 26.92ZM176.583 30C175.575 30 174.791 29.8507 174.231 29.552C173.671 29.2533 173.279 28.8333 173.055 28.292C172.85 27.732 172.747 27.0787 172.747 26.332V18.296H170.059V14.992H172.747V10.904L176.835 10.512V14.992H179.859V18.296H176.835V25.548C176.835 25.996 176.938 26.2947 177.143 26.444C177.349 26.5933 177.647 26.668 178.039 26.668H179.859V30H176.583ZM188.654 30.252C187.515 30.252 186.489 30.084 185.574 29.748C184.659 29.3933 183.866 28.88 183.194 28.208C182.522 27.536 182.009 26.724 181.654 25.772C181.299 24.8013 181.122 23.7093 181.122 22.496C181.122 20.9467 181.421 19.5933 182.018 18.436C182.615 17.26 183.474 16.3453 184.594 15.692C185.714 15.0387 187.067 14.712 188.654 14.712C189.774 14.712 190.791 14.8893 191.706 15.244C192.621 15.5987 193.405 16.112 194.058 16.784C194.73 17.456 195.243 18.268 195.598 19.22C195.971 20.172 196.158 21.264 196.158 22.496C196.158 24.0267 195.859 25.38 195.262 26.556C194.665 27.7133 193.806 28.6187 192.686 29.272C191.585 29.9253 190.241 30.252 188.654 30.252ZM188.626 26.92C189.298 26.92 189.886 26.7613 190.39 26.444C190.913 26.108 191.305 25.6133 191.566 24.96C191.846 24.3067 191.986 23.4853 191.986 22.496C191.986 21.7493 191.911 21.1053 191.762 20.564C191.613 20.004 191.389 19.5373 191.09 19.164C190.791 18.7907 190.437 18.52 190.026 18.352C189.615 18.1653 189.158 18.072 188.654 18.072C187.982 18.072 187.385 18.2307 186.862 18.548C186.358 18.8653 185.966 19.3507 185.686 20.004C185.406 20.6573 185.266 21.488 185.266 22.496C185.266 23.2427 185.341 23.896 185.49 24.456C185.658 24.9973 185.891 25.4547 186.19 25.828C186.489 26.1827 186.843 26.4533 187.254 26.64C187.665 26.8267 188.122 26.92 188.626 26.92ZM198.78 30V14.992H202.504L202.672 17.4H202.812C203.148 16.4293 203.68 15.7573 204.408 15.384C205.154 14.992 206.004 14.796 206.956 14.796C207.124 14.796 207.273 14.796 207.404 14.796C207.534 14.796 207.665 14.796 207.796 14.796V18.66C207.702 18.66 207.572 18.66 207.404 18.66C207.236 18.66 207.058 18.66 206.872 18.66C205.957 18.66 205.21 18.8 204.632 19.08C204.053 19.3413 203.624 19.7333 203.344 20.256C203.064 20.7787 202.914 21.4133 202.896 22.16V30H198.78Z" fill="#1A1A1A"/>
</svg>
